<svg width="318" height="253" viewBox="0 0 318 253" fill="none" xmlns="http://www.w3.org/2000/svg">
<path d="M42.5046 0.5C23.5649 7.01907 21.314 16.8526 21.5046 37.5H274.505C279.73 38.7595 281.764 40.6648 283.505 46.5L278.505 138C289.645 141.738 295.15 145.422 304.505 153L312.005 61.5C306.93 51.3588 303.04 49.4769 294.505 50L287.005 141L294.505 33C289.672 22.0044 283.957 20.1867 277.275 20H153.005C148.875 19.0078 147.048 16.5938 144.005 11.5C139.054 3.63475 131.356 0.606921 124.005 0.5H42.5046Z" fill="black"/>
<path d="M0.504639 68C3.11178 52.4899 7.96816 48.1078 21.5046 46.5H121.505C127.038 52.2268 130.199 56.0221 135.505 65.5C140.957 72.9026 145.506 75.7346 157.005 78H242.005C252.526 79.0506 259.194 82.247 277.005 108V138C209.505 124.5 169.505 213 237.505 252H42.5046C28.61 249.202 23.3976 245.001 19.0046 232.5L0.504639 68Z" fill="black"/>
<path d="M42.5046 0.5C23.5649 7.01907 21.314 16.8526 21.5046 37.5H274.505C279.73 38.7595 281.764 40.6648 283.505 46.5L278.505 138C289.645 141.738 295.15 145.422 304.505 153L312.005 61.5C306.93 51.3588 303.04 49.4769 294.505 50L287.005 141L294.505 33C289.672 22.0044 283.957 20.1867 277.275 20H153.005C148.875 19.0078 147.048 16.5938 144.005 11.5C139.054 3.63475 131.356 0.606921 124.005 0.5H42.5046Z" stroke="black"/>
<path d="M0.504639 68C3.11178 52.4899 7.96816 48.1078 21.5046 46.5H121.505C127.038 52.2268 130.199 56.0221 135.505 65.5C140.957 72.9026 145.506 75.7346 157.005 78H242.005C252.526 79.0506 259.194 82.247 277.005 108V138C209.505 124.5 169.505 213 237.505 252H42.5046C28.61 249.202 23.3976 245.001 19.0046 232.5L0.504639 68Z" stroke="black"/>
<path d="M94.5046 184V229.5H65.5046V187.5L68.5046 184H94.5046Z" fill="#002654" stroke="#002654"/>
<path d="M176.005 229.5H146.505V121L149.005 117.5H176.005V229.5Z" fill="#ED2939" stroke="#ED2939"/>
<path d="M134.005 229.5H105.005V155.5L108.505 152H134.005V229.5Z" fill="white" stroke="black"/>
<circle cx="263.005" cy="197" r="54.5" fill="black"/>
<path d="M244.005 192C237.505 185.5 224.505 193.5 232.505 202C240.505 210.5 252.005 222.5 252.005 222.5C256.815 226.911 259.339 227.1 263.505 222.5C263.505 222.5 291.005 191.001 296.005 183.5C301.005 176 292.005 168.001 284.505 174C277.005 180 257.005 205.5 257.005 205.5C257.005 205.5 250.505 198.5 244.005 192Z" fill="white" stroke="black"/>
<path d="M132.005 51.5L128.505 47.5H270.505C273.615 48.5417 275.3 49.381 276.505 53V104.5L273.005 95V55C272.844 52.3099 271.931 51.4156 268.005 51.5H132.005Z" fill="#030303" stroke="black"/>
</svg>
